<mxfile host="app.diagrams.net" modified="2024-04-12T17:05:23.288Z" agent="Mozilla/5.0 (Windows NT 10.0; Win64; x64) AppleWebKit/537.36 (KHTML, like Gecko) Chrome/123.0.0.0 Safari/537.36" etag="V31wuMJcmLG2NVTsKUdn" version="24.2.3" type="google">
  <diagram name="PÃ¡gina-1" id="bD7Uo5LcLhm-oNzbtefM">
    <mxGraphModel grid="1" page="1" gridSize="10" guides="1" tooltips="1" connect="1" arrows="1" fold="1" pageScale="1" pageWidth="827" pageHeight="1169" math="0" shadow="0">
      <root>
        <mxCell id="0" />
        <mxCell id="1" parent="0" />
        <mxCell id="fjyamVcxegqE3fC7odbh-1" value="inicio" style="ellipse;whiteSpace=wrap;html=1;" vertex="1" parent="1">
          <mxGeometry x="240" y="180" width="120" height="80" as="geometry" />
        </mxCell>
        <mxCell id="fjyamVcxegqE3fC7odbh-4" value="" style="edgeStyle=orthogonalEdgeStyle;rounded=0;orthogonalLoop=1;jettySize=auto;html=1;" edge="1" parent="1" source="fjyamVcxegqE3fC7odbh-2" target="fjyamVcxegqE3fC7odbh-3">
          <mxGeometry relative="1" as="geometry" />
        </mxCell>
        <mxCell id="fjyamVcxegqE3fC7odbh-2" value="n1*n2" style="html=1;strokeWidth=2;shape=manualInput;whiteSpace=wrap;rounded=1;size=26;arcSize=11;" vertex="1" parent="1">
          <mxGeometry x="250" y="290" width="100" height="60" as="geometry" />
        </mxCell>
        <mxCell id="fjyamVcxegqE3fC7odbh-3" value="n1*n2=n3+70%" style="whiteSpace=wrap;html=1;strokeWidth=2;rounded=1;arcSize=11;" vertex="1" parent="1">
          <mxGeometry x="240" y="390" width="120" height="60" as="geometry" />
        </mxCell>
        <mxCell id="fjyamVcxegqE3fC7odbh-5" style="edgeStyle=orthogonalEdgeStyle;rounded=0;orthogonalLoop=1;jettySize=auto;html=1;exitX=0.5;exitY=1;exitDx=0;exitDy=0;entryX=0.513;entryY=0.156;entryDx=0;entryDy=0;entryPerimeter=0;" edge="1" parent="1" source="fjyamVcxegqE3fC7odbh-1" target="fjyamVcxegqE3fC7odbh-2">
          <mxGeometry relative="1" as="geometry" />
        </mxCell>
        <mxCell id="fjyamVcxegqE3fC7odbh-9" value="" style="edgeStyle=orthogonalEdgeStyle;rounded=0;orthogonalLoop=1;jettySize=auto;html=1;" edge="1" parent="1" source="fjyamVcxegqE3fC7odbh-6" target="fjyamVcxegqE3fC7odbh-8">
          <mxGeometry relative="1" as="geometry" />
        </mxCell>
        <mxCell id="fjyamVcxegqE3fC7odbh-6" value="total=n4+70%" style="strokeWidth=2;html=1;shape=mxgraph.flowchart.display;whiteSpace=wrap;" vertex="1" parent="1">
          <mxGeometry x="240" y="470" width="100" height="60" as="geometry" />
        </mxCell>
        <mxCell id="fjyamVcxegqE3fC7odbh-7" style="edgeStyle=orthogonalEdgeStyle;rounded=0;orthogonalLoop=1;jettySize=auto;html=1;exitX=0.5;exitY=1;exitDx=0;exitDy=0;entryX=0.593;entryY=-0.056;entryDx=0;entryDy=0;entryPerimeter=0;" edge="1" parent="1" source="fjyamVcxegqE3fC7odbh-3" target="fjyamVcxegqE3fC7odbh-6">
          <mxGeometry relative="1" as="geometry" />
        </mxCell>
        <mxCell id="fjyamVcxegqE3fC7odbh-8" value="fim" style="ellipse;whiteSpace=wrap;html=1;strokeWidth=2;" vertex="1" parent="1">
          <mxGeometry x="250" y="560" width="80" height="80" as="geometry" />
        </mxCell>
      </root>
    </mxGraphModel>
  </diagram>
</mxfile>
